<svg xmlns="http://www.w3.org/2000/svg" width="248" height="64" viewBox="0 0 248 64" role="img" aria-label="KI Integration Register — VERIFIZIERT">
  <title>KI Integration Register — VERIFIZIERT</title>
  <defs>
    <linearGradient id="g" gradientUnits="userSpaceOnUse" x1="33" y1="507" x2="479" y2="5">
      <stop offset="0" stop-color="#06E4DB"/>
      <stop offset=".42" stop-color="#2E9AE6"/>
      <stop offset=".72" stop-color="#5A6BEE"/>
      <stop offset="1" stop-color="#7E48F3"/>
    </linearGradient>
  </defs>
  <rect x=".5" y=".5" width="247" height="63" rx="7" fill="#ffffff" stroke="#e2e2e0"/>
  <g transform="translate(16 16) scale(0.0625)" fill="url(#g)">
      <path d="M262.0 8.5 A12.0 12.0 0 0 0 250.0 8.5 L173.6 52.5 A12.0 12.0 0 0 0 173.6 73.3 L250.0 117.4 A12.0 12.0 0 0 0 262.0 117.4 L338.4 73.3 A12.0 12.0 0 0 0 338.4 52.5 Z"/>
      <path d="M267.0 154.5 A22.0 22.0 0 0 1 245.0 154.5 L125.5 85.5 A9.0 9.0 0 0 0 116.5 85.5 L65.9 114.8 A10.0 10.0 0 0 0 65.9 132.1 L241.0 233.2 A30.0 30.0 0 0 0 271.0 233.2 L446.1 132.1 A10.0 10.0 0 0 0 446.1 114.8 L395.5 85.5 A9.0 9.0 0 0 0 386.5 85.5 Z"/>
      <path d="M267.0 275.5 A22.0 22.0 0 0 1 245.0 275.5 L46.5 160.9 A9.0 9.0 0 0 0 33.0 168.7 L33.0 228.9 A9.0 9.0 0 0 0 37.5 236.7 L241.0 354.2 A30.0 30.0 0 0 0 271.0 354.2 L474.5 236.7 A9.0 9.0 0 0 0 479.0 228.9 L479.0 168.7 A9.0 9.0 0 0 0 465.5 160.9 Z"/>
      <path d="M267.0 396.5 A22.0 22.0 0 0 1 245.0 396.5 L46.5 281.9 A9.0 9.0 0 0 0 33.0 289.7 L33.0 353.9 A42.0 42.0 0 0 0 54.0 390.2 L241.0 498.2 A30.0 30.0 0 0 0 271.0 498.2 L458.0 390.2 A42.0 42.0 0 0 0 479.0 353.9 L479.0 289.7 A9.0 9.0 0 0 0 465.5 281.9 Z"/>
  </g>
  <path fill="#1a1a19" stroke="#1a1a19" stroke-width=".7" stroke-linejoin="round" d="M64.9 27L64.9 16.81L66.13 16.81L66.13 21.87L66.26 21.87L70.84 16.81L72.44 16.81L68.17 21.41L72.44 27L70.95 27L67.4 22.27L66.13 23.71L66.13 27ZM74.61 16.81L74.61 27L73.38 27L73.38 16.81ZM80.93 16.81L80.93 27L79.7 27L79.7 16.81ZM83.74 22.41L83.74 27L82.58 27L82.58 19.36L83.7 19.36L83.7 20.56L83.81 20.56Q84.08 19.97 84.62 19.62Q85.17 19.26 86.04 19.26Q86.81 19.26 87.39 19.58Q87.97 19.89 88.3 20.53Q88.62 21.17 88.62 22.15L88.62 27L87.46 27L87.46 22.23Q87.46 21.33 86.99 20.82Q86.52 20.31 85.7 20.31Q85.14 20.31 84.7 20.56Q84.25 20.81 84 21.27Q83.74 21.74 83.74 22.41ZM93.44 19.36L93.44 20.36L89.48 20.36L89.48 19.36ZM90.63 17.54L91.79 17.54L91.79 24.81Q91.79 25.41 92.04 25.68Q92.29 25.96 92.82 25.96Q92.94 25.96 93.06 25.95Q93.19 25.93 93.34 25.91L93.59 26.96Q93.42 27.02 93.19 27.06Q92.95 27.1 92.71 27.1Q91.79 27.1 91.21 26.55Q90.63 26 90.63 25.13ZM97.76 27.16Q96.66 27.16 95.85 26.67Q95.05 26.18 94.62 25.29Q94.19 24.41 94.19 23.24Q94.19 22.06 94.61 21.17Q95.04 20.27 95.8 19.77Q96.57 19.26 97.61 19.26Q98.2 19.26 98.79 19.46Q99.38 19.66 99.86 20.1Q100.34 20.55 100.63 21.28Q100.91 22.01 100.91 23.08L100.91 23.58L95.02 23.58L95.02 22.57L100.28 22.57L99.74 22.95Q99.74 22.19 99.5 21.59Q99.26 21 98.78 20.66Q98.31 20.31 97.61 20.31Q96.9 20.31 96.4 20.66Q95.9 21 95.63 21.56Q95.36 22.11 95.36 22.75L95.36 23.42Q95.36 24.29 95.66 24.89Q95.96 25.49 96.5 25.8Q97.04 26.11 97.76 26.11Q98.21 26.11 98.59 25.98Q98.97 25.84 99.24 25.57Q99.51 25.3 99.66 24.91L100.79 25.24Q100.61 25.81 100.19 26.24Q99.77 26.68 99.15 26.92Q98.53 27.16 97.76 27.16ZM105.1 30.02Q103.82 30.02 103.08 29.56Q102.34 29.09 101.98 28.49L102.91 27.83Q103.07 28.05 103.31 28.32Q103.56 28.59 103.98 28.78Q104.41 28.98 105.1 28.98Q106.02 28.98 106.63 28.54Q107.23 28.09 107.23 27.14L107.23 25.59L107.12 25.59Q107 25.8 106.76 26.1Q106.53 26.41 106.09 26.64Q105.64 26.88 104.89 26.88Q103.97 26.88 103.24 26.44Q102.51 26 102.08 25.17Q101.65 24.33 101.65 23.14Q101.65 21.97 102.07 21.1Q102.48 20.23 103.22 19.74Q103.96 19.26 104.92 19.26Q105.67 19.26 106.11 19.51Q106.55 19.75 106.78 20.06Q107.02 20.38 107.15 20.57L107.27 20.57L107.27 19.36L108.39 19.36L108.39 27.22Q108.39 28.2 107.95 28.82Q107.51 29.44 106.76 29.73Q106.01 30.02 105.1 30.02ZM105.06 25.82Q106.12 25.82 106.68 25.11Q107.24 24.39 107.24 23.12Q107.24 22.29 107 21.66Q106.75 21.03 106.26 20.67Q105.77 20.31 105.06 20.31Q104.31 20.31 103.82 20.69Q103.32 21.07 103.07 21.71Q102.83 22.34 102.83 23.12Q102.83 23.91 103.08 24.52Q103.33 25.13 103.83 25.48Q104.33 25.82 105.06 25.82ZM109.9 27L109.9 19.36L111.02 19.36L111.02 20.52L111.1 20.52Q111.31 19.95 111.86 19.6Q112.41 19.25 113.1 19.25Q113.23 19.25 113.42 19.25Q113.61 19.25 113.71 19.26L113.71 20.45Q113.65 20.44 113.44 20.41Q113.23 20.38 112.99 20.38Q112.43 20.38 112 20.62Q111.56 20.85 111.31 21.25Q111.06 21.65 111.06 22.17L111.06 27ZM116.69 27.18Q115.97 27.18 115.37 26.9Q114.78 26.62 114.43 26.1Q114.08 25.57 114.08 24.83Q114.08 24.17 114.34 23.76Q114.6 23.36 115.03 23.12Q115.47 22.88 115.99 22.77Q116.51 22.65 117.05 22.58Q117.74 22.5 118.18 22.45Q118.61 22.4 118.81 22.28Q119.02 22.17 119.02 21.89L119.02 21.85Q119.02 21.11 118.62 20.71Q118.22 20.3 117.4 20.3Q116.57 20.3 116.09 20.67Q115.61 21.03 115.42 21.45L114.3 21.05Q114.6 20.36 115.1 19.97Q115.6 19.58 116.2 19.42Q116.79 19.26 117.36 19.26Q117.73 19.26 118.21 19.35Q118.69 19.43 119.14 19.7Q119.6 19.97 119.89 20.52Q120.19 21.06 120.19 21.97L120.19 27L119.02 27L119.02 25.96L118.96 25.96Q118.84 26.21 118.56 26.49Q118.28 26.77 117.82 26.98Q117.36 27.18 116.69 27.18ZM116.87 26.13Q117.57 26.13 118.04 25.85Q118.52 25.58 118.77 25.14Q119.02 24.71 119.02 24.24L119.02 23.16Q118.94 23.25 118.69 23.32Q118.44 23.39 118.12 23.45Q117.79 23.5 117.48 23.54Q117.18 23.58 116.99 23.6Q116.53 23.66 116.14 23.79Q115.74 23.92 115.5 24.18Q115.26 24.44 115.26 24.89Q115.26 25.5 115.71 25.81Q116.17 26.13 116.87 26.13ZM125 19.36L125 20.36L121.05 20.36L121.05 19.36ZM122.2 17.54L123.36 17.54L123.36 24.81Q123.36 25.41 123.61 25.68Q123.86 25.96 124.39 25.96Q124.5 25.96 124.63 25.95Q124.76 25.93 124.91 25.91L125.15 26.96Q124.99 27.02 124.75 27.06Q124.52 27.1 124.28 27.1Q123.36 27.1 122.78 26.55Q122.2 26 122.2 25.13ZM126.13 27L126.13 19.36L127.29 19.36L127.29 27ZM126.71 18.09Q126.37 18.09 126.13 17.85Q125.88 17.62 125.88 17.29Q125.88 16.96 126.13 16.73Q126.37 16.5 126.71 16.5Q127.05 16.5 127.3 16.73Q127.55 16.96 127.55 17.29Q127.55 17.62 127.3 17.85Q127.05 18.09 126.71 18.09ZM131.88 27.16Q130.85 27.16 130.07 26.67Q129.29 26.18 128.86 25.29Q128.42 24.4 128.42 23.23Q128.42 22.03 128.86 21.14Q129.29 20.25 130.07 19.75Q130.85 19.26 131.88 19.26Q132.92 19.26 133.7 19.75Q134.48 20.25 134.92 21.14Q135.35 22.03 135.35 23.23Q135.35 24.4 134.92 25.29Q134.48 26.18 133.7 26.67Q132.92 27.16 131.88 27.16ZM131.88 26.11Q132.67 26.11 133.18 25.71Q133.69 25.3 133.93 24.65Q134.18 23.99 134.18 23.23Q134.18 22.45 133.93 21.79Q133.69 21.13 133.18 20.72Q132.67 20.31 131.88 20.31Q131.1 20.31 130.6 20.72Q130.09 21.13 129.84 21.79Q129.6 22.45 129.6 23.23Q129.6 23.99 129.84 24.65Q130.09 25.3 130.6 25.71Q131.1 26.11 131.88 26.11ZM137.65 22.41L137.65 27L136.49 27L136.49 19.36L137.61 19.36L137.61 20.56L137.72 20.56Q137.99 19.97 138.53 19.62Q139.08 19.26 139.95 19.26Q140.72 19.26 141.3 19.58Q141.88 19.89 142.21 20.53Q142.53 21.17 142.53 22.15L142.53 27L141.37 27L141.37 22.23Q141.37 21.33 140.9 20.82Q140.43 20.31 139.61 20.31Q139.05 20.31 138.61 20.56Q138.16 20.81 137.91 21.27Q137.65 21.74 137.65 22.41ZM147.47 27L147.47 16.81L150.91 16.81Q152.11 16.81 152.87 17.22Q153.63 17.63 154 18.34Q154.37 19.04 154.37 19.95Q154.37 20.84 154.01 21.54Q153.64 22.24 152.88 22.63Q152.12 23.02 150.93 23.02L148.15 23.02L148.15 21.91L150.88 21.91Q151.71 21.91 152.2 21.67Q152.7 21.44 152.93 20.99Q153.15 20.55 153.15 19.95Q153.15 19.33 152.93 18.87Q152.7 18.41 152.2 18.16Q151.7 17.91 150.87 17.91L148.7 17.91L148.7 27ZM153.33 27L150.87 22.42L152.27 22.42L154.77 27ZM158.81 27.16Q157.71 27.16 156.91 26.67Q156.11 26.18 155.68 25.29Q155.25 24.41 155.25 23.24Q155.25 22.06 155.67 21.17Q156.09 20.27 156.86 19.77Q157.63 19.26 158.66 19.26Q159.26 19.26 159.85 19.46Q160.43 19.66 160.92 20.1Q161.4 20.55 161.69 21.28Q161.97 22.01 161.97 23.08L161.97 23.58L156.08 23.58L156.08 22.57L161.34 22.57L160.8 22.95Q160.8 22.19 160.56 21.59Q160.32 21 159.84 20.66Q159.37 20.31 158.66 20.31Q157.96 20.31 157.46 20.66Q156.96 21 156.69 21.56Q156.42 22.11 156.42 22.75L156.42 23.42Q156.42 24.29 156.72 24.89Q157.02 25.49 157.56 25.8Q158.1 26.11 158.81 26.11Q159.27 26.11 159.65 25.98Q160.02 25.84 160.3 25.57Q160.57 25.3 160.71 24.91L161.85 25.24Q161.67 25.81 161.25 26.24Q160.83 26.68 160.21 26.92Q159.59 27.16 158.81 27.16ZM166.16 30.02Q164.88 30.02 164.14 29.56Q163.39 29.09 163.04 28.49L163.97 27.83Q164.13 28.05 164.37 28.32Q164.62 28.59 165.04 28.78Q165.47 28.98 166.16 28.98Q167.08 28.98 167.68 28.54Q168.29 28.09 168.29 27.14L168.29 25.59L168.18 25.59Q168.06 25.8 167.82 26.1Q167.58 26.41 167.14 26.64Q166.7 26.88 165.95 26.88Q165.03 26.88 164.3 26.44Q163.57 26 163.14 25.17Q162.71 24.33 162.71 23.14Q162.71 21.97 163.12 21.1Q163.54 20.23 164.28 19.74Q165.01 19.26 165.98 19.26Q166.72 19.26 167.16 19.51Q167.61 19.75 167.84 20.06Q168.08 20.38 168.21 20.57L168.33 20.57L168.33 19.36L169.45 19.36L169.45 27.22Q169.45 28.2 169.01 28.82Q168.57 29.44 167.82 29.73Q167.07 30.02 166.16 30.02ZM166.12 25.82Q167.17 25.82 167.74 25.11Q168.3 24.39 168.3 23.12Q168.3 22.29 168.06 21.66Q167.81 21.03 167.32 20.67Q166.83 20.31 166.12 20.31Q165.37 20.31 164.87 20.69Q164.38 21.07 164.13 21.71Q163.89 22.34 163.89 23.12Q163.89 23.91 164.14 24.52Q164.39 25.13 164.88 25.48Q165.38 25.82 166.12 25.82ZM170.96 27L170.96 19.36L172.12 19.36L172.12 27ZM171.54 18.09Q171.2 18.09 170.96 17.85Q170.71 17.62 170.71 17.29Q170.71 16.96 170.96 16.73Q171.2 16.5 171.54 16.5Q171.88 16.5 172.13 16.73Q172.38 16.96 172.38 17.29Q172.38 17.62 172.13 17.85Q171.88 18.09 171.54 18.09ZM179.02 21.08L177.97 21.37Q177.82 20.98 177.45 20.63Q177.09 20.27 176.31 20.27Q175.62 20.27 175.15 20.6Q174.69 20.92 174.69 21.41Q174.69 21.85 175.01 22.11Q175.32 22.37 176 22.53L177.13 22.8Q178.15 23.05 178.66 23.56Q179.16 24.07 179.16 24.87Q179.16 25.52 178.78 26.04Q178.41 26.56 177.74 26.86Q177.07 27.16 176.18 27.16Q175.01 27.16 174.25 26.65Q173.48 26.14 173.28 25.17L174.39 24.89Q174.54 25.51 174.99 25.82Q175.44 26.13 176.16 26.13Q176.98 26.13 177.47 25.77Q177.96 25.42 177.96 24.94Q177.96 24.13 176.82 23.86L175.55 23.55Q174.5 23.3 174 22.78Q173.51 22.26 173.51 21.48Q173.51 20.83 173.88 20.33Q174.24 19.83 174.88 19.55Q175.51 19.26 176.31 19.26Q177.46 19.26 178.1 19.76Q178.75 20.27 179.02 21.08ZM183.59 19.36L183.59 20.36L179.64 20.36L179.64 19.36ZM180.79 17.54L181.95 17.54L181.95 24.81Q181.95 25.41 182.19 25.68Q182.44 25.96 182.97 25.96Q183.09 25.96 183.22 25.95Q183.34 25.93 183.49 25.91L183.74 26.96Q183.57 27.02 183.34 27.06Q183.1 27.1 182.86 27.1Q181.94 27.1 181.36 26.55Q180.79 26 180.79 25.13ZM187.91 27.16Q186.81 27.16 186 26.67Q185.2 26.18 184.77 25.29Q184.34 24.41 184.34 23.24Q184.34 22.06 184.76 21.17Q185.19 20.27 185.96 19.77Q186.73 19.26 187.76 19.26Q188.35 19.26 188.94 19.46Q189.53 19.66 190.01 20.1Q190.49 20.55 190.78 21.28Q191.07 22.01 191.07 23.08L191.07 23.58L185.17 23.58L185.17 22.57L190.43 22.57L189.89 22.95Q189.89 22.19 189.65 21.59Q189.41 21 188.94 20.66Q188.46 20.31 187.76 20.31Q187.05 20.31 186.55 20.66Q186.05 21 185.78 21.56Q185.52 22.11 185.52 22.75L185.52 23.42Q185.52 24.29 185.82 24.89Q186.12 25.49 186.66 25.8Q187.2 26.11 187.91 26.11Q188.37 26.11 188.74 25.98Q189.12 25.84 189.39 25.57Q189.67 25.3 189.81 24.91L190.94 25.24Q190.77 25.81 190.35 26.24Q189.92 26.68 189.3 26.92Q188.68 27.16 187.91 27.16ZM192.17 27L192.17 19.36L193.29 19.36L193.29 20.52L193.38 20.52Q193.59 19.95 194.14 19.6Q194.69 19.25 195.37 19.25Q195.5 19.25 195.69 19.25Q195.89 19.25 195.99 19.26L195.99 20.45Q195.93 20.44 195.71 20.41Q195.5 20.38 195.26 20.38Q194.71 20.38 194.27 20.62Q193.83 20.85 193.59 21.25Q193.34 21.65 193.34 22.17L193.34 27Z"/>
  <path fill="#2f7d5c" d="M66.55 45L64.38 37.67L65.31 37.67L66.35 41.34L67.14 44.11L67.19 44.11L67.98 41.34L69.02 37.67L69.92 37.67L67.75 45ZM71.24 45L71.24 37.67L75.76 37.67L75.76 38.44L72.13 38.44L72.13 40.91L75.63 40.91L75.63 41.67L72.13 41.67L72.13 44.23L75.76 44.23L75.76 45ZM78.43 45L77.54 45L77.54 37.67L80.21 37.67Q81.23 37.67 81.77 38.23Q82.3 38.78 82.3 39.78Q82.3 40.67 81.84 41.21Q81.38 41.75 80.5 41.83L82.36 45L81.38 45L79.59 41.87L78.43 41.87ZM80.19 41.13Q80.75 41.13 81.06 40.85Q81.37 40.57 81.37 40.05L81.37 39.51Q81.37 38.99 81.06 38.72Q80.75 38.44 80.19 38.44L78.43 38.44L78.43 41.13ZM83.78 45L83.78 44.3L85.61 44.3L85.61 38.37L83.78 38.37L83.78 37.67L88.32 37.67L88.32 38.37L86.49 38.37L86.49 44.3L88.32 44.3L88.32 45ZM90.14 45L90.14 37.67L94.76 37.67L94.76 38.44L91.03 38.44L91.03 40.91L94.45 40.91L94.45 41.67L91.03 41.67L91.03 45ZM96.38 45L96.38 44.3L98.21 44.3L98.21 38.37L96.38 38.37L96.38 37.67L100.92 37.67L100.92 38.37L99.09 38.37L99.09 44.3L100.92 44.3L100.92 45ZM107.6 45L102.3 45L102.3 44.21L106.45 38.44L102.48 38.44L102.48 37.67L107.42 37.67L107.42 38.46L103.26 44.23L107.6 44.23ZM108.98 45L108.98 44.3L110.81 44.3L110.81 38.37L108.98 38.37L108.98 37.67L113.52 37.67L113.52 38.37L111.69 38.37L111.69 44.3L113.52 44.3L113.52 45ZM115.34 45L115.34 37.67L119.86 37.67L119.86 38.44L116.23 38.44L116.23 40.91L119.73 40.91L119.73 41.67L116.23 41.67L116.23 44.23L119.86 44.23L119.86 45ZM122.53 45L121.64 45L121.64 37.67L124.31 37.67Q125.33 37.67 125.87 38.23Q126.4 38.78 126.4 39.78Q126.4 40.67 125.94 41.21Q125.48 41.75 124.6 41.83L126.46 45L125.48 45L123.69 41.87L122.53 41.87ZM124.29 41.13Q124.85 41.13 125.16 40.85Q125.47 40.57 125.47 40.05L125.47 39.51Q125.47 38.99 125.16 38.72Q124.85 38.44 124.29 38.44L122.53 38.44L122.53 41.13ZM130.59 38.44L130.59 45L129.71 45L129.71 38.44L127.26 38.44L127.26 37.67L133.04 37.67L133.04 38.44Z"/>
</svg>
